<mxfile host="app.diagrams.net" modified="2023-10-26T10:33:42.918Z" agent="Mozilla/5.0 (Macintosh; Intel Mac OS X 10_15_7) AppleWebKit/537.36 (KHTML, like Gecko) Chrome/115.0.0.0 Safari/537.36" etag="GLyi0jZhAoZH5FyqpQkk" version="22.0.8" type="device">
  <diagram id="PZSCGYiU5lqwYuweIhzP" name="Page-2">
    <mxGraphModel dx="4307" dy="1538" grid="1" gridSize="10" guides="1" tooltips="1" connect="1" arrows="1" fold="1" page="1" pageScale="1" pageWidth="827" pageHeight="1169" math="0" shadow="0">
      <root>
        <mxCell id="0" />
        <mxCell id="1" parent="0" />
        <mxCell id="gsjcGjjO2q5OQMugKB_k-1" style="edgeStyle=orthogonalEdgeStyle;rounded=0;orthogonalLoop=1;jettySize=auto;html=1;" parent="1" source="gsjcGjjO2q5OQMugKB_k-2" target="gsjcGjjO2q5OQMugKB_k-4" edge="1">
          <mxGeometry relative="1" as="geometry" />
        </mxCell>
        <mxCell id="gsjcGjjO2q5OQMugKB_k-2" value="&lt;p style=&quot;margin: 0px; margin-top: 4px; text-align: center; text-decoration: underline;&quot;&gt;Social Media&lt;/p&gt;" style="verticalAlign=middle;align=center;overflow=fill;fontSize=12;fontFamily=Helvetica;html=1;rounded=1;fontStyle=1;strokeWidth=3;fillColor=#1ba1e2;fontColor=#ffffff;strokeColor=#006EAF;" parent="1" vertex="1">
          <mxGeometry x="-20" y="800" width="110" height="30" as="geometry" />
        </mxCell>
        <mxCell id="gsjcGjjO2q5OQMugKB_k-3" style="edgeStyle=orthogonalEdgeStyle;rounded=0;orthogonalLoop=1;jettySize=auto;html=1;" parent="1" source="gsjcGjjO2q5OQMugKB_k-4" target="gsjcGjjO2q5OQMugKB_k-32" edge="1">
          <mxGeometry relative="1" as="geometry">
            <mxPoint x="140.00000000000045" y="900.0000000000002" as="sourcePoint" />
            <mxPoint x="446" y="1261" as="targetPoint" />
            <Array as="points">
              <mxPoint x="20" y="1340" />
            </Array>
          </mxGeometry>
        </mxCell>
        <mxCell id="gsjcGjjO2q5OQMugKB_k-4" value="NLP Identify the Segment of Social Media" style="shape=process;whiteSpace=wrap;align=center;verticalAlign=middle;size=0.0475;fontStyle=1;strokeWidth=3;fillColor=#a20025;fontColor=#ffffff;strokeColor=#6F0000;" parent="1" vertex="1">
          <mxGeometry x="-163.25" y="919" width="396.5" height="40" as="geometry" />
        </mxCell>
        <mxCell id="gsjcGjjO2q5OQMugKB_k-5" value="&lt;u&gt;Other Social Activity&amp;nbsp;&lt;/u&gt;" style="verticalAlign=middle;align=center;overflow=fill;fontSize=12;fontFamily=Helvetica;html=1;rounded=1;fontStyle=1;strokeWidth=3;fillColor=#1ba1e2;fontColor=#ffffff;strokeColor=#006EAF;" parent="1" vertex="1">
          <mxGeometry x="370.25" y="800" width="136.5" height="30" as="geometry" />
        </mxCell>
        <mxCell id="gsjcGjjO2q5OQMugKB_k-6" style="edgeStyle=orthogonalEdgeStyle;rounded=0;orthogonalLoop=1;jettySize=auto;html=1;entryX=0.5;entryY=0;entryDx=0;entryDy=0;" parent="1" source="gsjcGjjO2q5OQMugKB_k-7" target="gsjcGjjO2q5OQMugKB_k-32" edge="1">
          <mxGeometry relative="1" as="geometry" />
        </mxCell>
        <mxCell id="gsjcGjjO2q5OQMugKB_k-7" value="Â NLP Identify the Segment of Social Activity" style="shape=process;whiteSpace=wrap;align=center;verticalAlign=middle;size=0.0475;fontStyle=1;strokeWidth=3;fillColor=#a20025;fontColor=#ffffff;strokeColor=#6F0000;" parent="1" vertex="1">
          <mxGeometry x="248.5" y="920" width="396.5" height="40" as="geometry" />
        </mxCell>
        <mxCell id="gsjcGjjO2q5OQMugKB_k-8" style="edgeStyle=orthogonalEdgeStyle;rounded=0;orthogonalLoop=1;jettySize=auto;html=1;entryX=0.479;entryY=0;entryDx=0;entryDy=0;entryPerimeter=0;" parent="1" source="gsjcGjjO2q5OQMugKB_k-5" target="gsjcGjjO2q5OQMugKB_k-7" edge="1">
          <mxGeometry relative="1" as="geometry" />
        </mxCell>
        <mxCell id="gsjcGjjO2q5OQMugKB_k-9" style="edgeStyle=orthogonalEdgeStyle;rounded=0;orthogonalLoop=1;jettySize=auto;html=1;" parent="1" source="gsjcGjjO2q5OQMugKB_k-10" target="gsjcGjjO2q5OQMugKB_k-32" edge="1">
          <mxGeometry relative="1" as="geometry">
            <Array as="points">
              <mxPoint x="-330" y="1340" />
            </Array>
          </mxGeometry>
        </mxCell>
        <mxCell id="gsjcGjjO2q5OQMugKB_k-10" value="Identify the condition and location of Patient" style="shape=process;whiteSpace=wrap;align=center;verticalAlign=middle;size=0.0475;fontStyle=1;strokeWidth=3;fillColor=#a20025;fontColor=#ffffff;strokeColor=#6F0000;" parent="1" vertex="1">
          <mxGeometry x="-590" y="920" width="396.5" height="40" as="geometry" />
        </mxCell>
        <mxCell id="gsjcGjjO2q5OQMugKB_k-11" style="edgeStyle=orthogonalEdgeStyle;rounded=0;orthogonalLoop=1;jettySize=auto;html=1;" parent="1" source="gsjcGjjO2q5OQMugKB_k-12" target="gsjcGjjO2q5OQMugKB_k-10" edge="1">
          <mxGeometry relative="1" as="geometry" />
        </mxCell>
        <mxCell id="gsjcGjjO2q5OQMugKB_k-12" value="&lt;p style=&quot;margin: 0px; margin-top: 4px; text-align: center; text-decoration: underline;&quot;&gt;Images&lt;/p&gt;" style="verticalAlign=middle;align=center;overflow=fill;fontSize=12;fontFamily=Helvetica;html=1;rounded=1;fontStyle=1;strokeWidth=3;fillColor=#1ba1e2;fontColor=#ffffff;strokeColor=#006EAF;" parent="1" vertex="1">
          <mxGeometry x="-446.75" y="820" width="110" height="25" as="geometry" />
        </mxCell>
        <mxCell id="gsjcGjjO2q5OQMugKB_k-13" style="edgeStyle=orthogonalEdgeStyle;rounded=0;orthogonalLoop=1;jettySize=auto;html=1;entryX=0;entryY=0.5;entryDx=0;entryDy=0;" parent="1" source="gsjcGjjO2q5OQMugKB_k-14" target="gsjcGjjO2q5OQMugKB_k-26" edge="1">
          <mxGeometry relative="1" as="geometry" />
        </mxCell>
        <mxCell id="gsjcGjjO2q5OQMugKB_k-14" value="&lt;p style=&quot;margin: 0px; margin-top: 4px; text-align: center; text-decoration: underline;&quot;&gt;Demographic Information&lt;/p&gt;" style="verticalAlign=middle;align=center;overflow=fill;fontSize=12;fontFamily=Helvetica;html=1;rounded=1;fontStyle=1;strokeWidth=3;fillColor=#1ba1e2;fontColor=#ffffff;strokeColor=#006EAF;" parent="1" vertex="1">
          <mxGeometry x="-1110" y="1120" width="150" height="30" as="geometry" />
        </mxCell>
        <mxCell id="gsjcGjjO2q5OQMugKB_k-15" style="edgeStyle=orthogonalEdgeStyle;rounded=0;orthogonalLoop=1;jettySize=auto;html=1;entryX=0;entryY=0.5;entryDx=0;entryDy=0;" parent="1" source="gsjcGjjO2q5OQMugKB_k-16" target="gsjcGjjO2q5OQMugKB_k-26" edge="1">
          <mxGeometry relative="1" as="geometry" />
        </mxCell>
        <mxCell id="gsjcGjjO2q5OQMugKB_k-16" value="&lt;p style=&quot;margin: 0px; margin-top: 4px; text-align: center; text-decoration: underline;&quot;&gt;Financial Information&lt;/p&gt;" style="verticalAlign=middle;align=center;overflow=fill;fontSize=12;fontFamily=Helvetica;html=1;rounded=1;fontStyle=1;strokeWidth=3;fillColor=#1ba1e2;fontColor=#ffffff;strokeColor=#006EAF;" parent="1" vertex="1">
          <mxGeometry x="-1110" y="1270" width="150" height="30" as="geometry" />
        </mxCell>
        <mxCell id="gsjcGjjO2q5OQMugKB_k-17" style="edgeStyle=orthogonalEdgeStyle;rounded=0;orthogonalLoop=1;jettySize=auto;html=1;entryX=0;entryY=0.5;entryDx=0;entryDy=0;" parent="1" source="gsjcGjjO2q5OQMugKB_k-18" target="gsjcGjjO2q5OQMugKB_k-26" edge="1">
          <mxGeometry relative="1" as="geometry" />
        </mxCell>
        <mxCell id="gsjcGjjO2q5OQMugKB_k-18" value="&lt;p style=&quot;margin: 0px; margin-top: 4px; text-align: center; text-decoration: underline;&quot;&gt;Medical History&lt;/p&gt;" style="verticalAlign=middle;align=center;overflow=fill;fontSize=12;fontFamily=Helvetica;html=1;rounded=1;fontStyle=1;strokeWidth=3;fillColor=#1ba1e2;fontColor=#ffffff;strokeColor=#006EAF;" parent="1" vertex="1">
          <mxGeometry x="-1110" y="1440" width="150" height="30" as="geometry" />
        </mxCell>
        <mxCell id="gsjcGjjO2q5OQMugKB_k-19" style="edgeStyle=orthogonalEdgeStyle;rounded=0;orthogonalLoop=1;jettySize=auto;html=1;entryX=0;entryY=0.5;entryDx=0;entryDy=0;" parent="1" source="gsjcGjjO2q5OQMugKB_k-20" target="gsjcGjjO2q5OQMugKB_k-26" edge="1">
          <mxGeometry relative="1" as="geometry" />
        </mxCell>
        <mxCell id="gsjcGjjO2q5OQMugKB_k-20" value="&lt;p style=&quot;margin: 0px; margin-top: 4px; text-align: center; text-decoration: underline;&quot;&gt;Medication History&lt;/p&gt;" style="verticalAlign=middle;align=center;overflow=fill;fontSize=12;fontFamily=Helvetica;html=1;rounded=1;fontStyle=1;strokeWidth=3;fillColor=#1ba1e2;fontColor=#ffffff;strokeColor=#006EAF;" parent="1" vertex="1">
          <mxGeometry x="-1110" y="1610" width="150" height="30" as="geometry" />
        </mxCell>
        <mxCell id="gsjcGjjO2q5OQMugKB_k-21" style="edgeStyle=orthogonalEdgeStyle;rounded=0;orthogonalLoop=1;jettySize=auto;html=1;entryX=0;entryY=0.5;entryDx=0;entryDy=0;" parent="1" source="gsjcGjjO2q5OQMugKB_k-22" target="gsjcGjjO2q5OQMugKB_k-26" edge="1">
          <mxGeometry relative="1" as="geometry" />
        </mxCell>
        <mxCell id="gsjcGjjO2q5OQMugKB_k-22" value="&lt;p style=&quot;margin: 0px; margin-top: 4px; text-align: center; text-decoration: underline;&quot;&gt;Phycical Status&lt;/p&gt;" style="verticalAlign=middle;align=center;overflow=fill;fontSize=12;fontFamily=Helvetica;html=1;rounded=1;fontStyle=1;strokeWidth=3;fillColor=#1ba1e2;fontColor=#ffffff;strokeColor=#006EAF;" parent="1" vertex="1">
          <mxGeometry x="-1109" y="1770" width="150" height="30" as="geometry" />
        </mxCell>
        <mxCell id="gsjcGjjO2q5OQMugKB_k-23" style="edgeStyle=orthogonalEdgeStyle;rounded=0;orthogonalLoop=1;jettySize=auto;html=1;entryX=0;entryY=0.5;entryDx=0;entryDy=0;" parent="1" source="gsjcGjjO2q5OQMugKB_k-24" target="gsjcGjjO2q5OQMugKB_k-26" edge="1">
          <mxGeometry relative="1" as="geometry" />
        </mxCell>
        <mxCell id="gsjcGjjO2q5OQMugKB_k-24" value="&lt;p style=&quot;margin: 0px; margin-top: 4px; text-align: center; text-decoration: underline;&quot;&gt;Life Style&lt;/p&gt;" style="verticalAlign=middle;align=center;overflow=fill;fontSize=12;fontFamily=Helvetica;html=1;rounded=1;fontStyle=1;strokeWidth=3;fillColor=#1ba1e2;fontColor=#ffffff;strokeColor=#006EAF;" parent="1" vertex="1">
          <mxGeometry x="-1107" y="1930" width="150" height="30" as="geometry" />
        </mxCell>
        <mxCell id="gsjcGjjO2q5OQMugKB_k-25" style="edgeStyle=orthogonalEdgeStyle;rounded=0;orthogonalLoop=1;jettySize=auto;html=1;entryX=0.5;entryY=0;entryDx=0;entryDy=0;" parent="1" source="gsjcGjjO2q5OQMugKB_k-26" target="gsjcGjjO2q5OQMugKB_k-35" edge="1">
          <mxGeometry relative="1" as="geometry" />
        </mxCell>
        <mxCell id="gsjcGjjO2q5OQMugKB_k-26" value="&lt;p style=&quot;margin: 0px; margin-top: 4px; text-align: center; text-decoration: underline;&quot;&gt;Consolidate the scores&lt;/p&gt;&lt;p style=&quot;margin: 0px; margin-top: 4px; text-align: center; text-decoration: underline;&quot;&gt;&amp;nbsp;and add care needed score&lt;/p&gt;" style="verticalAlign=middle;align=center;overflow=fill;fontSize=12;fontFamily=Helvetica;html=1;rounded=1;fontStyle=1;strokeWidth=3;fillColor=#1ba1e2;fontColor=#ffffff;strokeColor=#006EAF;" parent="1" vertex="1">
          <mxGeometry x="-760" y="1525" width="200" height="65" as="geometry" />
        </mxCell>
        <mxCell id="gsjcGjjO2q5OQMugKB_k-27" style="edgeStyle=orthogonalEdgeStyle;rounded=0;orthogonalLoop=1;jettySize=auto;html=1;entryX=0.5;entryY=0;entryDx=0;entryDy=0;" parent="1" source="gsjcGjjO2q5OQMugKB_k-28" target="gsjcGjjO2q5OQMugKB_k-30" edge="1">
          <mxGeometry relative="1" as="geometry" />
        </mxCell>
        <mxCell id="gsjcGjjO2q5OQMugKB_k-28" value="&lt;p style=&quot;margin: 0px; margin-top: 4px; text-align: center; text-decoration: underline;&quot;&gt;Phycical Status&lt;/p&gt;" style="verticalAlign=middle;align=center;overflow=fill;fontSize=12;fontFamily=Helvetica;html=1;rounded=1;fontStyle=1;strokeWidth=3;fillColor=#1ba1e2;fontColor=#ffffff;strokeColor=#006EAF;" parent="1" vertex="1">
          <mxGeometry x="804.25" y="800" width="150" height="30" as="geometry" />
        </mxCell>
        <mxCell id="gsjcGjjO2q5OQMugKB_k-29" style="edgeStyle=orthogonalEdgeStyle;rounded=0;orthogonalLoop=1;jettySize=auto;html=1;entryX=1;entryY=0.5;entryDx=0;entryDy=0;" parent="1" edge="1">
          <mxGeometry relative="1" as="geometry">
            <mxPoint x="879.2857142857147" y="950.0000000000002" as="sourcePoint" />
            <mxPoint x="546.7499999999995" y="1341" as="targetPoint" />
            <Array as="points">
              <mxPoint x="879" y="1341" />
            </Array>
          </mxGeometry>
        </mxCell>
        <mxCell id="gsjcGjjO2q5OQMugKB_k-30" value="Â NLP Identify the Segment of Social Activity" style="shape=process;whiteSpace=wrap;align=center;verticalAlign=middle;size=0.0475;fontStyle=1;strokeWidth=3;fillColor=#a20025;fontColor=#ffffff;strokeColor=#6F0000;" parent="1" vertex="1">
          <mxGeometry x="681" y="919" width="396.5" height="40" as="geometry" />
        </mxCell>
        <mxCell id="gsjcGjjO2q5OQMugKB_k-31" style="edgeStyle=orthogonalEdgeStyle;rounded=0;orthogonalLoop=1;jettySize=auto;html=1;" parent="1" source="gsjcGjjO2q5OQMugKB_k-32" target="gsjcGjjO2q5OQMugKB_k-34" edge="1">
          <mxGeometry relative="1" as="geometry" />
        </mxCell>
        <mxCell id="gsjcGjjO2q5OQMugKB_k-32" value="&lt;p style=&quot;margin: 0px; margin-top: 4px; text-align: center; text-decoration: underline;&quot;&gt;Consolidate all segments&amp;nbsp;&lt;/p&gt;&lt;p style=&quot;margin: 0px; margin-top: 4px; text-align: center; text-decoration: underline;&quot;&gt;identified along with scores&lt;/p&gt;&lt;p style=&quot;margin: 0px; margin-top: 4px; text-align: center; text-decoration: underline;&quot;&gt;&lt;br&gt;&lt;/p&gt;" style="verticalAlign=middle;align=center;overflow=fill;fontSize=12;fontFamily=Helvetica;html=1;rounded=1;fontStyle=1;strokeWidth=3;fillColor=#1ba1e2;fontColor=#ffffff;strokeColor=#006EAF;" parent="1" vertex="1">
          <mxGeometry x="346.75" y="1300" width="200" height="60" as="geometry" />
        </mxCell>
        <mxCell id="gsjcGjjO2q5OQMugKB_k-33" style="edgeStyle=orthogonalEdgeStyle;rounded=0;orthogonalLoop=1;jettySize=auto;html=1;entryX=0.5;entryY=0;entryDx=0;entryDy=0;" parent="1" source="gsjcGjjO2q5OQMugKB_k-34" target="gsjcGjjO2q5OQMugKB_k-35" edge="1">
          <mxGeometry relative="1" as="geometry" />
        </mxCell>
        <mxCell id="gsjcGjjO2q5OQMugKB_k-34" value="&lt;p style=&quot;margin: 0px; margin-top: 4px; text-align: center; text-decoration: underline;&quot;&gt;Pick top 2 segments&amp;nbsp;&lt;/p&gt;" style="verticalAlign=middle;align=center;overflow=fill;fontSize=12;fontFamily=Helvetica;html=1;rounded=1;fontStyle=1;strokeWidth=3;fillColor=#1ba1e2;fontColor=#ffffff;strokeColor=#006EAF;" parent="1" vertex="1">
          <mxGeometry x="346.75" y="1542.5" width="200" height="30" as="geometry" />
        </mxCell>
        <mxCell id="gsjcGjjO2q5OQMugKB_k-35" value="&lt;p style=&quot;margin: 0px; margin-top: 4px; text-align: center; text-decoration: underline;&quot;&gt;Consolidate Care Need Scores&lt;/p&gt;&lt;p style=&quot;margin: 0px; margin-top: 4px; text-align: center; text-decoration: underline;&quot;&gt;and Sement scores.&lt;/p&gt;&lt;p style=&quot;margin: 0px; margin-top: 4px; text-align: center; text-decoration: underline;&quot;&gt;Process to find most appropriate&amp;nbsp;&lt;/p&gt;&lt;p style=&quot;margin: 0px; margin-top: 4px; text-align: center; text-decoration: underline;&quot;&gt;Care Bucket to cover more&lt;/p&gt;&lt;p style=&quot;margin: 0px; margin-top: 4px; text-align: center; text-decoration: underline;&quot;&gt;members&lt;/p&gt;" style="verticalAlign=middle;align=center;overflow=fill;fontSize=12;fontFamily=Helvetica;html=1;rounded=1;fontStyle=1;strokeWidth=3;fillColor=#1ba1e2;fontColor=#ffffff;strokeColor=#006EAF;" parent="1" vertex="1">
          <mxGeometry x="-350" y="1720" width="200" height="100" as="geometry" />
        </mxCell>
      </root>
    </mxGraphModel>
  </diagram>
</mxfile>
